<?xml version="1.0" encoding="UTF-8"?>
<svg version="1.1" xmlns="http://www.w3.org/2000/svg" width="368" height="172">
<path d="M0 0 C121.44 0 242.88 0 368 0 C368 56.76 368 113.52 368 172 C246.56 172 125.12 172 0 172 C0 115.24 0 58.48 0 0 Z " fill="#FDFDFD" transform="translate(0,0)"/>
<path d="M0 0 C66 0 132 0 200 0 C200 34.65 200 69.3 200 105 C134 105 68 105 0 105 C0 70.35 0 35.7 0 0 Z " fill="#0E0E0E" transform="translate(136,21)"/>
<path d="M0 0 C34.32 0 68.64 0 104 0 C104 34.65 104 69.3 104 105 C69.68 105 35.36 105 0 105 C0 70.35 0 35.7 0 0 Z " fill="#0D0D0E" transform="translate(30,21)"/>
<path d="M0 0 C1.0583757 -0.01929062 2.1167514 -0.03858124 3.2071991 -0.05845642 C8.05964837 -0.11615456 12.91194757 -0.1654911 17.76464844 -0.19628906 C20.32240303 -0.21786185 22.88008394 -0.2519555 25.4375 -0.29882812 C29.12574231 -0.36582639 32.81245565 -0.39329179 36.5012207 -0.41235352 C38.20939217 -0.4540995 38.20939217 -0.4540995 39.95207214 -0.49668884 C46.32110249 -0.48023757 50.10872808 0.08242604 54.73493958 4.62510681 C57.00652308 7.64286463 57.06341812 10.50251496 57.10400391 14.13574219 C57.12325676 15.6379406 57.12325676 15.6379406 57.14289856 17.17048645 C57.15028549 18.25174301 57.15767242 19.33299957 57.1652832 20.44702148 C57.17335495 21.56054489 57.1814267 22.6740683 57.18974304 23.82133484 C57.20357923 26.17921391 57.21430347 28.53711298 57.22216797 30.89501953 C57.23938476 34.49672458 57.28327695 38.09751271 57.32739258 41.69897461 C57.33751928 43.98998349 57.34603545 46.28100016 57.3527832 48.57202148 C57.37029129 49.64720535 57.38779938 50.72238922 57.40583801 51.83015442 C57.3885794 57.79382106 57.10519953 61.58551667 52.92700195 66.20874023 C49.80691036 69.01611158 47.7996363 69.59318524 43.62695312 69.64453125 C42.03961617 69.67324059 42.03961617 69.67324059 40.42021179 69.70252991 C39.28163223 69.70586838 38.14305267 69.70920685 36.9699707 69.71264648 C35.79364578 69.72263168 34.61732086 69.73261688 33.40534973 69.74290466 C30.91642779 69.75809202 28.42744479 69.76513027 25.93847656 69.76464844 C22.13869936 69.77119852 18.34154987 69.82564888 14.54223633 69.88256836 C12.12232338 69.89137278 9.70239803 69.89732542 7.2824707 69.90014648 C6.14996384 69.92170303 5.01745697 69.94325958 3.85063171 69.96546936 C-2.44620934 69.91103443 -6.25513259 69.31451284 -10.87846375 64.88755798 C-13.23074208 61.58162812 -13.21008596 58.13759468 -13.28173828 54.18408203 C-13.3010289 53.18591965 -13.32031952 52.18775726 -13.3401947 51.15934753 C-13.39815676 46.60692228 -13.44718801 42.0546491 -13.47802734 37.50195312 C-13.49962743 35.10336935 -13.53375349 32.70486481 -13.58056641 30.30664062 C-13.64757542 26.84005705 -13.67502666 23.37509888 -13.6940918 19.90795898 C-13.72192245 18.84107346 -13.74975311 17.77418793 -13.77842712 16.67497253 C-13.7612258 10.42795682 -13.02077399 6.9257549 -8.55897522 2.42634583 C-5.70024138 0.08390721 -3.62015768 0.06155383 0 0 Z " fill="#0E0E12" transform="translate(60.072998046875,38.791259765625)"/>
<path d="M0 0 C5.61 0 11.22 0 17 0 C18.155 2.475 19.31 4.95 20.5 7.5 C23.27325829 13.41727609 26.11689334 19.29165714 29.0625 25.125 C31.93437705 30.81298949 34.68263042 36.54402194 37.3425293 42.33398438 C38.89548736 45.69509601 40.50085884 49.02003846 42.1796875 52.3203125 C42.54513672 53.03896484 42.91058594 53.75761719 43.28710938 54.49804688 C43.99383879 55.87978535 44.70579401 57.25886785 45.42382812 58.63476562 C47.26031121 62.22308428 48.19377945 64.96889727 49 69 C44.38 69 39.76 69 35 69 C30 60.25 30 60.25 30 58 C16.14 58 2.28 58 -12 58 C-12.66 60.31 -13.32 62.62 -14 65 C-14.66 66.32 -15.32 67.64 -16 69 C-20.95 69 -25.9 69 -31 69 C-28.87447001 62.23820072 -26.28108234 55.86990222 -23.3125 49.4375 C-22.87188232 48.47513428 -22.43126465 47.51276855 -21.97729492 46.52124023 C-19.05017458 40.16760819 -16.00542361 33.88446497 -12.84033203 27.64648438 C-8.24103741 18.57454578 -4.00681858 9.34924334 0 0 Z " fill="#F8F8F8" transform="translate(269,39)"/>
<path d="M0 0 C1.48831242 0.00667405 2.97660807 0.01863442 4.46484375 0.03515625 C5.22345703 0.03966797 5.98207031 0.04417969 6.76367188 0.04882812 C8.64326246 0.06064945 10.52281274 0.07858547 12.40234375 0.09765625 C17.13217874 9.44133572 21.72717265 18.83687609 26.1875 28.31225586 C28.18959649 32.55851267 30.22109777 36.78291068 32.33984375 40.97265625 C35.23443709 46.70444307 38.01002759 52.49116364 40.77734375 58.28515625 C41.23101318 59.23181152 41.68468262 60.1784668 42.15209961 61.15380859 C42.78257202 62.47759521 42.78257202 62.47759521 43.42578125 63.828125 C43.80653809 64.62629639 44.18729492 65.42446777 44.57958984 66.24682617 C45.40234375 68.09765625 45.40234375 68.09765625 45.40234375 69.09765625 C40.45234375 69.09765625 35.50234375 69.09765625 30.40234375 69.09765625 C28.75234375 65.79765625 27.10234375 62.49765625 25.40234375 59.09765625 C11.54234375 58.76765625 -2.31765625 58.43765625 -16.59765625 58.09765625 C-16.92765625 59.74765625 -17.25765625 61.39765625 -17.59765625 63.09765625 C-18.58765625 65.07765625 -19.57765625 67.05765625 -20.59765625 69.09765625 C-25.21765625 69.09765625 -29.83765625 69.09765625 -34.59765625 69.09765625 C-33.80175186 64.32222992 -33.0594281 61.71951016 -30.89453125 57.6171875 C-29.24095942 54.40467596 -27.7351312 51.12805002 -26.22265625 47.84765625 C-24.03369409 43.11498733 -21.77843735 38.43178372 -19.41015625 33.78515625 C-17.29492366 29.5991054 -15.48925193 25.4000429 -13.8046875 21.02734375 C-12.13293995 16.96970406 -10.27720441 13.00603083 -8.41015625 9.03515625 C-8.05260254 8.27178955 -7.69504883 7.50842285 -7.32666016 6.72192383 C-4.19937778 0.11398962 -4.19937778 0.11398962 0 0 Z " fill="#F8F8F8" transform="translate(189.59765625,38.90234375)"/>
<path d="M0 0 C3 1 3 1 4.53393555 3.65209961 C5.32731323 5.38472046 5.32731323 5.38472046 6.13671875 7.15234375 C6.42102249 7.76767471 6.70532623 8.38300568 6.99824524 9.01698303 C7.59723566 10.31856729 8.19120567 11.62247194 8.78051758 12.9284668 C9.68449345 14.93084027 10.60347288 16.92575498 11.52539062 18.91992188 C16 28.68143435 16 28.68143435 16 31 C6.43 31 -3.14 31 -13 31 C-12.13873234 26.69366172 -11.10983972 23.7399733 -9.27734375 19.82421875 C-8.47006836 18.08881836 -8.47006836 18.08881836 -7.64648438 16.31835938 C-7.07694064 15.10801751 -6.50727769 13.89773174 -5.9375 12.6875 C-5.36343439 11.45791463 -4.7898615 10.22809909 -4.21679688 8.99804688 C-2.81602767 5.99639857 -1.41027491 2.99719095 0 0 Z " fill="#141414" transform="translate(193,54)"/>
<path d="M0 0 C3.29034431 1.64517215 4.26262768 5.17856939 5.8125 8.375 C6.34327148 9.45624146 6.34327148 9.45624146 6.88476562 10.55932617 C7.93176132 12.7021869 8.96797086 14.84989686 10 17 C10.54011719 18.12277344 11.08023437 19.24554688 11.63671875 20.40234375 C15 27.58184097 15 27.58184097 15 31 C5.43 31 -4.14 31 -14 31 C-9.7408241 20.39552123 -5.28292545 10.13229776 0 0 Z " fill="#131313" transform="translate(277,54)"/>
<path d="M0 0 C1.0583757 -0.01929062 2.1167514 -0.03858124 3.2071991 -0.05845642 C8.05964837 -0.11615456 12.91194757 -0.1654911 17.76464844 -0.19628906 C20.32240303 -0.21786185 22.88008394 -0.2519555 25.4375 -0.29882812 C29.12574231 -0.36582639 32.81245565 -0.39329179 36.5012207 -0.41235352 C38.20939217 -0.4540995 38.20939217 -0.4540995 39.95207214 -0.49668884 C46.32110249 -0.48023757 50.10872808 0.08242604 54.73493958 4.62510681 C57.00652308 7.64286463 57.06341812 10.50251496 57.10400391 14.13574219 C57.12325676 15.6379406 57.12325676 15.6379406 57.14289856 17.17048645 C57.15028549 18.25174301 57.15767242 19.33299957 57.1652832 20.44702148 C57.17335495 21.56054489 57.1814267 22.6740683 57.18974304 23.82133484 C57.20357923 26.17921391 57.21430347 28.53711298 57.22216797 30.89501953 C57.23938476 34.49672458 57.28327695 38.09751271 57.32739258 41.69897461 C57.33751928 43.98998349 57.34603545 46.28100016 57.3527832 48.57202148 C57.37029129 49.64720535 57.38779938 50.72238922 57.40583801 51.83015442 C57.3885794 57.79382106 57.10519953 61.58551667 52.92700195 66.20874023 C49.80691036 69.01611158 47.7996363 69.59318524 43.62695312 69.64453125 C42.03961617 69.67324059 42.03961617 69.67324059 40.42021179 69.70252991 C39.28163223 69.70586838 38.14305267 69.70920685 36.9699707 69.71264648 C35.79364578 69.72263168 34.61732086 69.73261688 33.40534973 69.74290466 C30.91642779 69.75809202 28.42744479 69.76513027 25.93847656 69.76464844 C22.13869936 69.77119852 18.34154987 69.82564888 14.54223633 69.88256836 C12.12232338 69.89137278 9.70239803 69.89732542 7.2824707 69.90014648 C6.14996384 69.92170303 5.01745697 69.94325958 3.85063171 69.96546936 C-2.44620934 69.91103443 -6.25513259 69.31451284 -10.87846375 64.88755798 C-13.23074208 61.58162812 -13.21008596 58.13759468 -13.28173828 54.18408203 C-13.3010289 53.18591965 -13.32031952 52.18775726 -13.3401947 51.15934753 C-13.39815676 46.60692228 -13.44718801 42.0546491 -13.47802734 37.50195312 C-13.49962743 35.10336935 -13.53375349 32.70486481 -13.58056641 30.30664062 C-13.64757542 26.84005705 -13.67502666 23.37509888 -13.6940918 19.90795898 C-13.72192245 18.84107346 -13.74975311 17.77418793 -13.77842712 16.67497253 C-13.7612258 10.42795682 -13.02077399 6.9257549 -8.55897522 2.42634583 C-5.70024138 0.08390721 -3.62015768 0.06155383 0 0 Z M-9.07299805 5.20874023 C-11.24937848 8.47331088 -11.33143632 9.4434243 -11.36352539 13.22753906 C-11.3762851 14.24902542 -11.3890448 15.27051178 -11.40219116 16.32295227 C-11.40441681 17.42608261 -11.40664246 18.52921295 -11.40893555 19.66577148 C-11.41559235 20.80149094 -11.42224915 21.93721039 -11.42910767 23.10734558 C-11.43924023 25.51230244 -11.4439245 27.91728744 -11.44360352 30.32226562 C-11.44796864 33.99648635 -11.48426166 37.66949838 -11.5222168 41.34350586 C-11.52808643 43.68009029 -11.53205484 46.01668043 -11.53393555 48.35327148 C-11.54830658 49.45032913 -11.56267761 50.54738678 -11.57748413 51.6776886 C-11.542197 57.58984153 -11.43918783 61.77212803 -7.07299805 66.20874023 C-1.84896827 68.96068449 4.02920351 68.53183147 9.80200195 68.54467773 C10.84469238 68.55133453 11.88738281 68.55799133 12.96166992 68.56484985 C15.16038251 68.57494909 17.35912557 68.57966772 19.55786133 68.5793457 C22.91579639 68.58372562 26.27242356 68.62009385 29.63012695 68.65795898 C31.77074748 68.66382639 33.91137422 68.66779629 36.05200195 68.66967773 C37.552229 68.69123428 37.552229 68.69123428 39.08276367 68.71322632 C45.01541084 68.67443964 48.42394853 68.18397969 52.92700195 64.20874023 C55.11977012 60.91958799 55.18584499 59.90502699 55.2175293 56.08227539 C55.230289 55.03754059 55.24304871 53.99280579 55.25619507 52.91641235 C55.25842072 51.78827118 55.26064636 50.66013 55.26293945 49.49780273 C55.26959625 48.33751556 55.27625305 47.17722839 55.28311157 45.98178101 C55.29324381 43.52554919 55.29792842 41.06928981 55.29760742 38.61303711 C55.30197675 34.85541365 55.33828194 31.098968 55.3762207 27.34155273 C55.38208944 24.95614009 55.38605845 22.57072186 55.38793945 20.18530273 C55.40231049 19.06121002 55.41668152 17.93711731 55.43148804 16.77896118 C55.42581206 10.65609205 55.42581206 10.65609205 53.14819336 5.08520508 C49.48502192 1.99055398 46.77226917 0.96064757 41.97827148 0.91821289 C40.5062175 0.89907333 40.5062175 0.89907333 39.00442505 0.87954712 C37.4230928 0.87620865 37.4230928 0.87620865 35.80981445 0.87280273 C34.71990204 0.86614594 33.62998962 0.85948914 32.50704956 0.85263062 C30.20222663 0.84250899 27.89737443 0.83781344 25.5925293 0.83813477 C22.07201669 0.83376508 18.55276125 0.79744822 15.0324707 0.75952148 C12.79158957 0.75365252 10.55070249 0.74968366 8.30981445 0.74780273 C7.25964142 0.7334317 6.20946838 0.71906067 5.12747192 0.70425415 C-0.91963045 0.74192792 -4.5004322 1.1190551 -9.07299805 5.20874023 Z " fill="#6554DB" transform="translate(60.072998046875,38.791259765625)"/>
<path d="M0 0 C0 0.66 0 1.32 0 2 C-1.66279327 3.0064275 -3.32983484 4.00585407 -5 5 C-7.18204072 8.27306109 -7.2552752 9.23987873 -7.2746582 13.03466797 C-7.28419022 14.05938202 -7.29372223 15.08409607 -7.30354309 16.13986206 C-7.30263168 17.24612946 -7.30172028 18.35239685 -7.30078125 19.4921875 C-7.30506638 20.63027863 -7.3093515 21.76836975 -7.31376648 22.94094849 C-7.31951334 25.35011123 -7.32000744 27.75929133 -7.31567383 30.16845703 C-7.31251842 33.85349199 -7.33595385 37.53772086 -7.36132812 41.22265625 C-7.36360153 43.56249899 -7.36430442 45.90234388 -7.36328125 48.2421875 C-7.372491 49.34440643 -7.38170074 50.44662537 -7.39118958 51.58224487 C-7.38184639 53.12877243 -7.38184639 53.12877243 -7.37231445 54.70654297 C-7.37294388 55.61016571 -7.3735733 56.51378845 -7.3742218 57.4447937 C-6.91329733 60.59201044 -5.89239117 62.45807767 -4 65 C-0.92438754 66.35980881 -0.92438754 66.35980881 2 67 C0.02 67.99 0.02 67.99 -2 69 C-3.15518918 68.09515208 -4.29885406 67.1755794 -5.4375 66.25 C-6.39462891 65.48429687 -6.39462891 65.48429687 -7.37109375 64.703125 C-10.29146718 61.64968899 -10.13499167 58.04451783 -10.20874023 53.9753418 C-10.22803085 52.97717941 -10.24732147 51.97901703 -10.26719666 50.9506073 C-10.32515872 46.39818205 -10.37418996 41.84590887 -10.4050293 37.29321289 C-10.42662938 34.89462911 -10.46075544 32.49612458 -10.50756836 30.09790039 C-10.57457737 26.63131682 -10.60202862 23.16635865 -10.62109375 19.69921875 C-10.64892441 18.63233322 -10.67675507 17.56544769 -10.70542908 16.4662323 C-10.68822775 10.21921659 -9.94777594 6.71701466 -5.48597717 2.21760559 C-3.58677237 0.66140243 -2.48148411 0 0 0 Z " fill="#5043AB" transform="translate(57,39)"/>
<path d="M0 0 C0.99 0 1.98 0 3 0 C4.98 4.29 6.96 8.58 9 13 C8.01 13.33 7.02 13.66 6 14 C6 13.01 6 12.02 6 11 C3.03 11 0.06 11 -3 11 C-3.33 11.99 -3.66 12.98 -4 14 C-5.06528748 11.26980214 -5.07998186 10.20701188 -4.00390625 7.421875 C-3.52824219 6.54015625 -3.05257812 5.6584375 -2.5625 4.75 C-2.08941406 3.85796875 -1.61632812 2.9659375 -1.12890625 2.046875 C-0.75636719 1.37140625 -0.38382813 0.6959375 0 0 Z " fill="#4B4B4B" transform="translate(152,141)"/>
<path d="M0 0 C3 1 3 1 4.5625 3.0625 C6.33159277 6.67760262 7.13445692 10.07176601 8 14 C7.34 14 6.68 14 6 14 C5.67 13.34 5.34 12.68 5 12 C3.10466658 11.53476937 3.10466658 11.53476937 0.9375 11.375 C-0.361875 11.25125 -1.66125 11.1275 -3 11 C-3.33 11.99 -3.66 12.98 -4 14 C-4.66 14 -5.32 14 -6 14 C-4.50829734 9.0276578 -2.39542583 4.58154261 0 0 Z " fill="#474747" transform="translate(168,141)"/>
<path d="M0 0 C2.62594784 0.1136515 5.25011547 0.24039054 7.875 0.375 C8.62136719 0.4059375 9.36773437 0.436875 10.13671875 0.46875 C15.7734375 0.7734375 15.7734375 0.7734375 18 3 C18.26991906 5.68839385 18.08737357 8.29141936 18 11 C17.34 11 16.68 11 16 11 C15.67 8.36 15.34 5.72 15 3 C13.68 3 12.36 3 11 3 C10.67 5.64 10.34 8.28 10 11 C9.34 11 8.68 11 8 11 C7.67 8.36 7.34 5.72 7 3 C5.68 3 4.36 3 3 3 C2.67 5.64 2.34 8.28 2 11 C1.34 11 0.68 11 0 11 C0 7.37 0 3.74 0 0 Z " fill="#3D3D3D" transform="translate(179,144)"/>
<path d="M0 0 C2.6664882 -0.21620175 4.44004321 -0.30894168 6.8125 1 C8.73618446 4.23988962 8.18282384 7.2825819 8 11 C1.84765625 11.09765625 1.84765625 11.09765625 0 11 C-1 10 -1 10 -1.0625 7.4375 C-1.041875 6.633125 -1.02125 5.82875 -1 5 C0.98 5 2.96 5 5 5 C5 4.01 5 3.02 5 2 C3.02 2.33 1.04 2.66 -1 3 C-0.67 2.01 -0.34 1.02 0 0 Z " fill="#444444" transform="translate(202,144)"/>
<path d="M0 0 C0.33 0 0.66 0 1 0 C1.33 2.97 1.66 5.94 2 9 C5.49353838 7.25323081 7.13945763 6.08594785 9.75 3.375 C10.36359375 2.74335937 10.9771875 2.11171875 11.609375 1.4609375 C12.06828125 0.97882813 12.5271875 0.49671875 13 0 C13.66 0.33 14.32 0.66 15 1 C14.3503125 1.62648438 13.700625 2.25296875 13.03125 2.8984375 C11.77828125 4.12433594 11.77828125 4.12433594 10.5 5.375 C9.6646875 6.18710938 8.829375 6.99921875 7.96875 7.8359375 C5.77568714 9.7589659 5.77568714 9.7589659 6 12 C8.97 12.33 11.94 12.66 15 13 C15 13.66 15 14.32 15 15 C5.10085337 15.76803724 5.10085337 15.76803724 1.3125 13.125 C-0.53938008 8.71576172 -0.32962807 4.71551266 0 0 Z " fill="#5E4ECC" transform="translate(62,79)"/>
<path d="M0 0 C9.75961538 -0.60576923 9.75961538 -0.60576923 13.6875 1.3125 C15.82758961 5.69458826 15.29707731 10.21375444 15 15 C14.67 15 14.34 15 14 15 C13.67 11.7 13.34 8.4 13 5 C11.72799029 6.10281127 10.45744147 7.20730769 9.1875 8.3125 C8.47980469 8.92738281 7.77210937 9.54226562 7.04296875 10.17578125 C5.29863261 11.73334335 3.63221959 13.32658875 2 15 C1.34 14.67 0.68 14.34 0 14 C1.0828125 12.93458984 1.0828125 12.93458984 2.1875 11.84765625 C3.115625 10.92855469 4.04375 10.00945313 5 9.0625 C5.928125 8.14597656 6.85625 7.22945312 7.8125 6.28515625 C10.11525049 4.40683762 10.11525049 4.40683762 10 3 C6.7 2.67 3.4 2.34 0 2 C0 1.34 0 0.68 0 0 Z " fill="#6453D9" transform="translate(87,53)"/>
<path d="M0 0 C0 0.66 0 1.32 0 2 C-3.3 2.33 -6.6 2.66 -10 3 C-9.0925 4.051875 -8.185 5.10375 -7.25 6.1875 C-4.77093769 9.07778118 -2.35686471 12.00859479 0 15 C-3.21478567 13.59795691 -5.23914137 11.92902488 -7.625 9.375 C-9.33829787 7.49424248 -9.33829787 7.49424248 -11 6 C-11.66 6 -12.32 6 -13 6 C-13.33 8.97 -13.66 11.94 -14 15 C-14.33 15 -14.66 15 -15 15 C-15.60576923 5.24038462 -15.60576923 5.24038462 -13.6875 1.3125 C-9.30541174 -0.82758961 -4.78624556 -0.29707731 0 0 Z " fill="#6352D8" transform="translate(77,53)"/>
<path d="M0 0 C3.21478567 1.40204309 5.23914137 3.07097512 7.625 5.625 C9.33829787 7.50575752 9.33829787 7.50575752 11 9 C11.66 9 12.32 9 13 9 C13.33 6.03 13.66 3.06 14 0 C14.33 0 14.66 0 15 0 C15.32962807 4.71551266 15.53938008 8.71576172 13.6875 13.125 C9.4337194 16.09275391 5.0254164 15.389903 0 15 C0 14.34 0 13.68 0 13 C3.3 12.67 6.6 12.34 10 12 C9.0925 10.948125 8.185 9.89625 7.25 8.8125 C4.77093769 5.92221882 2.35686471 2.99140521 0 0 Z " fill="#6453D9" transform="translate(87,79)"/>
<path d="M0 0 C0.33 0.66 0.66 1.32 1 2 C2.98 2 4.96 2 7 2 C7.33 1.34 7.66 0.68 8 0 C11 4.75 11 4.75 11 7 C10.34 7 9.68 7 9 7 C8.67 6.34 8.34 5.68 8 5 C6.10466658 4.53476937 6.10466658 4.53476937 3.9375 4.375 C2.638125 4.25125 1.33875 4.1275 0 4 C-0.33 4.99 -0.66 5.98 -1 7 C-1.66 7 -2.32 7 -3 7 C-1.125 1.125 -1.125 1.125 0 0 Z " fill="#212121" transform="translate(165,148)"/>
<path d="M0 0 C0.33 0.99 0.66 1.98 1 3 C2.093125 2.896875 3.18625 2.79375 4.3125 2.6875 C5.529375 2.790625 6.74625 2.89375 8 3 C9.9375 5.5 9.9375 5.5 11 8 C10.01 8 9.02 8 8 8 C8 7.01 8 6.02 8 5 C5.03 5 2.06 5 -1 5 C-1.33 5.99 -1.66 6.98 -2 8 C-2.6875 6.25 -2.6875 6.25 -3 4 C-1.5625 1.75 -1.5625 1.75 0 0 Z " fill="#282828" transform="translate(150,147)"/>
<path d="M0 0 C2.31 0.33 4.62 0.66 7 1 C6.67 1.99 6.34 2.98 6 4 C3.4375 5.1875 3.4375 5.1875 1 6 C0 5 0 5 -0.0625 2.4375 C-0.041875 1.633125 -0.02125 0.82875 0 0 Z " fill="#8B8B8B" transform="translate(201,149)"/>
<path d="M0 0 C2.475 0.495 2.475 0.495 5 1 C4.01 1.495 4.01 1.495 3 2 C2.53348793 4.12576782 2.53348793 4.12576782 2.375 6.5625 C2.30023438 7.38878906 2.22546875 8.21507812 2.1484375 9.06640625 C2.09945312 9.70449219 2.05046875 10.34257812 2 11 C1.34 11 0.68 11 0 11 C0 7.37 0 3.74 0 0 Z " fill="#363636" transform="translate(214,144)"/>
<path d="M0 0 C1.79093191 -0.08086147 3.58289628 -0.13912702 5.375 -0.1875 C6.87160156 -0.23970703 6.87160156 -0.23970703 8.3984375 -0.29296875 C9.25695312 -0.19628906 10.11546875 -0.09960938 11 0 C11.66 0.99 12.32 1.98 13 3 C8.71 2.67 4.42 2.34 0 2 C0 1.34 0 0.68 0 0 Z " fill="#5C4DC8" transform="translate(87,53)"/>
<path d="M0 0 C0.66 0.66 1.32 1.32 2 2 C1 3 1 3 -1.50390625 3.09765625 C-3.01791016 3.08025391 -3.01791016 3.08025391 -4.5625 3.0625 C-5.57441406 3.05347656 -6.58632812 3.04445313 -7.62890625 3.03515625 C-8.41136719 3.02355469 -9.19382812 3.01195313 -10 3 C-10 2.34 -10 1.68 -10 1 C-8.37675914 0.77837671 -6.751279 0.57310197 -5.125 0.375 C-4.22007813 0.25898437 -3.31515625 0.14296875 -2.3828125 0.0234375 C-1.59648438 0.01570313 -0.81015625 0.00796875 0 0 Z " fill="#5849BE" transform="translate(97,91)"/>
<path d="M0 0 C3.63 0 7.26 0 11 0 C11 0.66 11 1.32 11 2 C7.37 2.33 3.74 2.66 0 3 C0 2.01 0 1.02 0 0 Z " fill="#5A4CC4" transform="translate(66,53)"/>
<path d="M0 0 C0 0.66 0 1.32 0 2 C-1.1446875 2.5878125 -1.1446875 2.5878125 -2.3125 3.1875 C-5.97639684 5.65850019 -6.52728317 7.89189515 -8 12 C-8.33 12 -8.66 12 -9 12 C-9.4375 9.375 -9.4375 9.375 -9 6 C-6.63912409 3.24874304 -3.78551072 0 0 0 Z " fill="#5D4DCA" transform="translate(57,39)"/>
<path d="M0 0 C3 3.75 3 3.75 3 6 C1.35 6 -0.3 6 -2 6 C-1.125 1.125 -1.125 1.125 0 0 Z " fill="#D8D8D8" transform="translate(169,144)"/>
<path d="M0 0 C0.66 0.33 1.32 0.66 2 1 C2.625 3.5625 2.625 3.5625 3 6 C1.35 6 -0.3 6 -2 6 C-1.34 4.02 -0.68 2.04 0 0 Z " fill="#D6D6D6" transform="translate(153,144)"/>
<path d="M0 0 C3.3 0 6.6 0 10 0 C10 0.33 10 0.66 10 1 C7.36 1 4.72 1 2 1 C1.67 1.99 1.34 2.98 1 4 C0.34 4 -0.32 4 -1 4 C-0.67 2.68 -0.34 1.36 0 0 Z " fill="#636363" transform="translate(163,151)"/>
<path d="M0 0 C0.33 0.66 0.66 1.32 1 2 C3.64 2 6.28 2 9 2 C9 2.33 9 2.66 9 3 C6.36 3 3.72 3 1 3 C0.67 3.99 0.34 4.98 0 6 C-1.125 2.25 -1.125 2.25 0 0 Z " fill="#676767" transform="translate(148,149)"/>
</svg>
